<svg id="eB7d4RUbF161" xmlns="http://www.w3.org/2000/svg" xmlns:xlink="http://www.w3.org/1999/xlink" viewBox="-350 0 4000 4000" shape-rendering="geometricPrecision" text-rendering="geometricPrecision"><style><![CDATA[#eB7d4RUbF162_tr {animation: eB7d4RUbF162_tr__tr 5000ms linear infinite normal forwards}@keyframes eB7d4RUbF162_tr__tr { 0% {transform: translate(1464.13px,1677.1px) rotate(-90deg);animation-timing-function: cubic-bezier(0.25,1,0.25,1)} 14% {transform: translate(1464.13px,1677.1px) rotate(90deg);animation-timing-function: cubic-bezier(0.25,1,0.25,1)} 30% {transform: translate(1464.13px,1677.1px) rotate(0deg);animation-timing-function: cubic-bezier(0.25,1,0.25,1)} 46% {transform: translate(1464.13px,1677.1px) rotate(135deg)} 62% {transform: translate(1464.13px,1677.1px) rotate(-45deg)} 74% {transform: translate(1464.13px,1677.1px) rotate(0deg)} 100% {transform: translate(1464.13px,1677.1px) rotate(0deg)}} #eB7d4RUbF1610 {animation: eB7d4RUbF1610_c_o 5000ms linear infinite normal forwards}@keyframes eB7d4RUbF1610_c_o { 0% {opacity: 0} 60% {opacity: 0;animation-timing-function: cubic-bezier(0.895,0.03,0.685,0.22)} 80% {opacity: 1} 100% {opacity: 1}}]]></style><g id="eB7d4RUbF162_tr" transform="translate(1464.13,1677.1) rotate(-90)"><g id="eB7d4RUbF162" transform="translate(-1464.13,-1677.099999)"><g id="eB7d4RUbF163" transform="matrix(1 0 0 1 0 0.000001)"><path id="eB7d4RUbF164" d="M949.09,1339.65C987.99,1192.5,1189.27,1074.09,1334.74,1065.64L1121.61,81.23C675.07,81.23,310.47,297.62,152.42,782.82L949.09,1339.65Z" transform="matrix(1 0 0 1 0 0.000001)" fill="rgb(241,199,72)" stroke="rgb(241,199,72)" stroke-width="39.7487" stroke-miterlimit="10"/><polygon id="eB7d4RUbF165" points="197.77,775.78 931.33,1281.83 960.7,1232.88" fill="rgb(244,150,47)" stroke="rgb(244,150,47)" stroke-width="9.9372" stroke-linecap="square" stroke-miterlimit="10"/><path id="eB7d4RUbF166" d="M933.03,1278.4C935.64,1281.09,1111.57,1072.44,1309.02,1045.57C1311.41,1045.24,1311.73,1042.09,1309.32,1041.9C1257.34,1037.78,1052.35,1033.54,877.2,1182.85" fill="rgb(244,150,47)" stroke="rgb(244,150,47)" stroke-width="9.9372" stroke-linecap="square" stroke-miterlimit="10"/></g></g></g><g id="eB7d4RUbF167"><circle id="eB7d4RUbF168" r="383.11" transform="matrix(1 0 0 1 1464.13 1677.1)" fill="rgb(137,60,104)" stroke="rgb(137,60,104)" stroke-width="39.7487" stroke-linecap="square" stroke-miterlimit="10"/><path id="eB7d4RUbF169" d="M1187.84,1961.06L1200.53,1973.11C1240.49,2018.14,1387.35,2091.4,1506.96,2074.97L1506.96,2074.97C1654.68,2056.83,1766.32,1961.9,1822.86,1848.59L1834.18,1818.19C1834.18,1818.19,1763.78,1887.05,1714.31,1921.73C1677.52,1953.02,1563.61,2012.64,1452.98,2013.07C1394.88,2020.26,1187.84,1961.06,1187.84,1961.06Z" fill="rgb(105,45,82)" stroke="rgb(105,45,82)" stroke-width="9.9372" stroke-linecap="square" stroke-miterlimit="10"/></g><g id="eB7d4RUbF1610" transform="matrix(1 0 0 1 0.000001 0.000007)" opacity="0"><g id="eB7d4RUbF1611"><path id="eB7d4RUbF1612" d="M1121.61,2166.77L1121.61,3952.93L1564.77,3952.93L1564.39,2985.66C1564.37,2931.36,1608.38,2887.32,1662.69,2887.32L1685.48,2887.32C1727.08,2887.32,1746.81,2923.29,1762.68,2961.74L2146.64,3952.92L2660.84,3952.92L1942.73,2053.29L1942.73,2053.29C1672.18,2225.12,1480.62,2258.1,1121.61,2166.77L1121.61,2166.77" fill="rgb(137,60,104)" stroke="rgb(137,60,104)" stroke-width="39.7487" stroke-linecap="square" stroke-miterlimit="10"/><path id="eB7d4RUbF1613" d="M1524.44,3967.3L1524.02,3020.32C1524.02,2943.95,1575.2,2923.08,1642.42,2903.61L1659.33,2902.93L1645.75,2904.84C1601.33,2914.07,1579.41,2953.18,1579.41,2985.22L1579.65,3967.06L1524.44,3967.3" fill="rgb(105,45,82)" stroke="rgb(105,45,82)" stroke-width="9.9372" stroke-linecap="square" stroke-miterlimit="10"/><path id="eB7d4RUbF1614" d="M1185.36,2165.7C1185.36,2165.7,1261.42,2220.48,1433.95,2236.33C1570.62,2248.89,1714.76,2206.24,1780.27,2165.29C1891.22,2095.94,1949.48,2036.85,1949.57,2032.36C1949.6,2031.05,1856.7,2100.27,1714.84,2155.19C1668.36,2172.38,1567.47,2205.04,1434.58,2201.44C1348.54,2199.12,1185.36,2165.7,1185.36,2165.7Z" fill="rgb(105,45,82)" stroke="rgb(105,45,82)" stroke-width="9.9372" stroke-linecap="square" stroke-miterlimit="10"/></g></g></svg>