<?xml version="1.0" encoding="utf-8"?>
<!-- Generator: Adobe Illustrator 25.4.1, SVG Export Plug-In . SVG Version: 6.00 Build 0)  -->
<svg version="1.1" xmlns="http://www.w3.org/2000/svg" xmlns:xlink="http://www.w3.org/1999/xlink" x="0px" y="0px"
	 viewBox="0 0 3500 4000" style="enable-background:new 0 0 3500 4000;" xml:space="preserve">
<style type="text/css">
	.st0{fill:#F1C748;stroke:#F1C748;stroke-width:39.7487;stroke-miterlimit:10;}
	.st1{fill:#F4962F;stroke:#F4962F;stroke-width:9.9372;stroke-linecap:square;stroke-miterlimit:10;}
	.st2{fill:#893C68;stroke:#893C68;stroke-width:39.7487;stroke-linecap:square;stroke-miterlimit:10;}
	.st3{fill:#692D52;stroke:#692D52;stroke-width:9.9372;stroke-linecap:square;stroke-miterlimit:10;}
</style>
<g id="Light">
	<path class="st0" d="M949.09,1339.65c38.9-147.15,240.18-265.56,385.65-274.01L1121.61,81.23
		c-446.54,0-811.14,216.39-969.19,701.59L949.09,1339.65z"/>
	<polygon class="st1" points="197.77,775.78 931.33,1281.83 960.7,1232.88 	"/>
	<path class="st1" d="M933.03,1278.4c2.61,2.69,178.54-205.96,375.99-232.83c2.39-0.33,2.71-3.48,0.3-3.67
		c-51.98-4.12-256.97-8.36-432.12,140.95"/>
</g>
<g id="Head">
	<circle class="st2" cx="1464.13" cy="1677.1" r="383.11"/>
	<path class="st3" d="M1187.84,1961.06l12.69,12.05c39.96,45.03,186.82,118.29,306.43,101.86l0,0
		c147.72-18.14,259.36-113.07,315.9-226.38l11.32-30.4c0,0-70.4,68.86-119.87,103.54c-36.79,31.29-150.7,90.91-261.33,91.34
		C1394.88,2020.26,1187.84,1961.06,1187.84,1961.06z"/>
</g>
<g id="Legs">
	<path class="st2" d="M1121.61,2166.77v1786.16h443.16l-0.38-967.27c-0.02-54.3,43.99-98.34,98.3-98.34h22.79
		c41.6,0,61.33,35.97,77.2,74.42l383.96,991.18h514.2l-718.11-1899.63l0,0C1672.18,2225.12,1480.62,2258.1,1121.61,2166.77
		L1121.61,2166.77"/>
	<path class="st3" d="M1524.44,3967.3l-0.42-946.98c0-76.37,51.18-97.24,118.4-116.71l16.91-0.68l-13.58,1.91
		c-44.42,9.23-66.34,48.34-66.34,80.38l0.24,981.84L1524.44,3967.3"/>
	<path class="st3" d="M1185.36,2165.7c0,0,76.06,54.78,248.59,70.63c136.67,12.56,280.81-30.09,346.32-71.04
		c110.95-69.35,169.21-128.44,169.3-132.93c0.03-1.31-92.87,67.91-234.73,122.83c-46.48,17.19-147.37,49.85-280.26,46.25
		C1348.54,2199.12,1185.36,2165.7,1185.36,2165.7z"/>
</g>
</svg>
