<?xml version="1.0" encoding="utf-8"?>
<svg xmlns="http://www.w3.org/2000/svg" xmlns:xlink="http://www.w3.org/1999/xlink" style="margin: auto; background: rgb(241, 242, 243); display: block; z-index: 1; position: relative; shape-rendering: auto;" width="1536" height="722" preserveAspectRatio="xMidYMid" viewBox="0 0 1536 722">
<g transform="translate(768,361) scale(1,1) translate(-768,-361)"><path id="path0" d="M 1390.2302220501722 101.13679516318383
c 0 36.17310182411205 -8.85086533994231 10.39014626862793 -19.24101160857024 10.39014626862793
S 1351.7481988330317 137.30989698729587 1351.7481988330317 101.13679516318383
s 8.85086533994231 -10.39014626862793 19.24101160857024 -10.39014626862793
S 1390.2302220501722 64.96369333907178 1390.2302220501722 101.13679516318383
z" fill="none" stroke="none"></path>
<circle cx="0" cy="0" r="5.179489005993572" fill="#552b2f">
  <animateMotion begin="-4.487652430703541s" dur="10s" repeatCount="indefinite">
    <mpath xlink:href="#path0"></mpath>
  </animateMotion>
</circle><path id="path1" d="M 1489.5427610072609 257.065798849423
c 0 20.931401995706736 -5.121513254268669 6.012211211532787 -11.133724465801455 6.012211211532787
S 1467.2753120756581 277.9972008451297 1467.2753120756581 257.065798849423
s 5.121513254268669 -6.012211211532787 11.133724465801455 -6.012211211532787
S 1489.5427610072609 236.13439685371628 1489.5427610072609 257.065798849423
z" fill="none" stroke="none"></path>
<circle cx="0" cy="0" r="6.638768073246628" fill="#94a9ce">
  <animateMotion begin="-3.1175540519567013s" dur="10s" repeatCount="indefinite">
    <mpath xlink:href="#path1"></mpath>
  </animateMotion>
</circle><path id="path2" d="M 952.7885405073032 418.3167094034959
c 0 37.0194533885945 -9.057951361039079 10.63324724991544 -19.69119861095452 10.63324724991544
S 913.4061432853941 455.3361627920904 913.4061432853941 418.3167094034959
s 9.057951361039079 -10.63324724991544 19.69119861095452 -10.63324724991544
S 952.7885405073032 381.2972560149014 952.7885405073032 418.3167094034959
z" fill="none" stroke="none"></path>
<circle cx="0" cy="0" r="4.352395226077371" fill="#f5f4fa">
  <animateMotion begin="-9.92830150332262s" dur="10s" repeatCount="indefinite">
    <mpath xlink:href="#path2"></mpath>
  </animateMotion>
</circle><path id="path3" d="M 1473.7153434652378 29.346006602874308
c 0 36.597152540373244 -8.954622430091325 10.51194807010721 -19.466570500198536 10.51194807010721
S 1434.7822024648408 65.94315914324756 1434.7822024648408 29.346006602874308
s 8.954622430091325 -10.51194807010721 19.466570500198536 -10.51194807010721
S 1473.7153434652378 -7.251145937498936 1473.7153434652378 29.346006602874308
z" fill="none" stroke="none"></path>
<circle cx="0" cy="0" r="5.294213865606899" fill="#b5ccf1">
  <animateMotion begin="-4.684453664247686s" dur="10s" repeatCount="indefinite">
    <mpath xlink:href="#path3"></mpath>
  </animateMotion>
</circle><path id="path4" d="M 154.22379521082186 469.0867524552641
c 0 37.584542463581634 -9.196217836833803 10.795560069326639 -19.991777906160443 10.795560069326639
S 114.24023939850096 506.6712949188457 114.24023939850096 469.0867524552641
s 9.196217836833803 -10.795560069326639 19.991777906160443 -10.795560069326639
S 154.22379521082186 431.5022099916825 154.22379521082186 469.0867524552641
z" fill="none" stroke="none"></path>
<circle cx="0" cy="0" r="5.336127648604251" fill="#b5ccf1">
  <animateMotion begin="-3.4336768306568577s" dur="10s" repeatCount="indefinite">
    <mpath xlink:href="#path4"></mpath>
  </animateMotion>
</circle><path id="path5" d="M 1440.3975774577166 158.30730506007774
c 0 25.440518307919145 -6.224807671086598 7.307382918232095 -13.532190589318693 7.307382918232095
S 1413.3331962790794 183.7478233679969 1413.3331962790794 158.30730506007774
s 6.224807671086598 -7.307382918232095 13.532190589318693 -7.307382918232095
S 1440.3975774577166 132.8667867521586 1440.3975774577166 158.30730506007774
z" fill="none" stroke="none"></path>
<circle cx="0" cy="0" r="4.29587151811407" fill="#552b2f">
  <animateMotion begin="-5.477445521807285s" dur="10s" repeatCount="indefinite">
    <mpath xlink:href="#path5"></mpath>
  </animateMotion>
</circle><path id="path6" d="M 905.5104381759741 212.3879261752649
c 0 19.54199055813386 -4.7815508812455185 5.613124947549088 -10.394675828794606 5.613124947549088
S 884.7210865183849 231.92991673339878 884.7210865183849 212.3879261752649
s 4.7815508812455185 -5.613124947549088 10.394675828794606 -5.613124947549088
S 905.5104381759741 192.84593561713103 905.5104381759741 212.3879261752649
z" fill="none" stroke="none"></path>
<circle cx="0" cy="0" r="4.212921486583617" fill="#f2bed1">
  <animateMotion begin="-7.398992043614285s" dur="10s" repeatCount="indefinite">
    <mpath xlink:href="#path6"></mpath>
  </animateMotion>
</circle><path id="path7" d="M 30.20404441322819 666.2196235566425
c 0 37.152859369488816 -9.090593249981305 10.671565989108489 -19.762159239089794 10.671565989108489
S -9.3202740649514 703.3724829261314 -9.3202740649514 666.2196235566425
s 9.090593249981305 -10.671565989108489 19.762159239089794 -10.671565989108489
S 30.20404441322819 629.0667641871537 30.20404441322819 666.2196235566425
z" fill="none" stroke="none"></path>
<circle cx="0" cy="0" r="7.423405860894966" fill="#94a9ce">
  <animateMotion begin="-2.1934662333500743s" dur="10s" repeatCount="indefinite">
    <mpath xlink:href="#path7"></mpath>
  </animateMotion>
</circle><path id="path8" d="M 776.0524565215826 328.41907263386577
c 0 28.294113632044343 -6.923027803585318 8.12703263899146 -15.050060442576779 8.12703263899146
S 745.9523356364291 356.7131862659101 745.9523356364291 328.41907263386577
s 6.923027803585318 -8.12703263899146 15.050060442576779 -8.12703263899146
S 776.0524565215826 300.1249590018214 776.0524565215826 328.41907263386577
z" fill="none" stroke="none"></path>
<circle cx="0" cy="0" r="5.4254073921714605" fill="#f5f4fa">
  <animateMotion begin="-6.7822094589275395s" dur="10s" repeatCount="indefinite">
    <mpath xlink:href="#path8"></mpath>
  </animateMotion>
</circle><path id="path9" d="M 413.4609939429296 68.43147227156392
c 0 19.065570721652755 -4.664980070191631 5.47628095196409 -10.141261022155721 5.47628095196409
S 393.1784718986181 87.49704299321667 393.1784718986181 68.43147227156392
s 4.664980070191631 -5.47628095196409 10.141261022155721 -5.47628095196409
S 413.4609939429296 49.365901549911165 413.4609939429296 68.43147227156392
z" fill="none" stroke="none"></path>
<circle cx="0" cy="0" r="4.749934785636651" fill="#f2bed1">
  <animateMotion begin="-9.508478228761026s" dur="10s" repeatCount="indefinite">
    <mpath xlink:href="#path9"></mpath>
  </animateMotion>
</circle><path id="path10" d="M 1228.4091730770958 672.3413125329502
c 0 28.591353468256855 -6.995756699679868 8.212410038754628 -15.208166738434496 8.212410038754628
S 1197.9928396002267 700.932666001207 1197.9928396002267 672.3413125329502
s 6.995756699679868 -8.212410038754628 15.208166738434496 -8.212410038754628
S 1228.4091730770958 643.7499590646933 1228.4091730770958 672.3413125329502
z" fill="none" stroke="none"></path>
<circle cx="0" cy="0" r="4.561625728612862" fill="#94a9ce">
  <animateMotion begin="-1.7489803287861072s" dur="10s" repeatCount="indefinite">
    <mpath xlink:href="#path10"></mpath>
  </animateMotion>
</circle><path id="path11" d="M 309.27565106978983 485.1522059220264
c 0 27.79943147044951 -6.801988551280198 7.984943081937625 -14.786931633217824 7.984943081937625
S 279.7017878033542 512.9516373924758 279.7017878033542 485.1522059220264
s 6.801988551280198 -7.984943081937625 14.786931633217824 -7.984943081937625
S 309.27565106978983 457.35277445157686 309.27565106978983 485.1522059220264
z" fill="none" stroke="none"></path>
<circle cx="0" cy="0" r="4.955219260032953" fill="#87434d">
  <animateMotion begin="-9.052707532175543s" dur="10s" repeatCount="indefinite">
    <mpath xlink:href="#path11"></mpath>
  </animateMotion>
</circle><path id="path12" d="M 1168.0818672706423 65.36967163728298
c 0 21.286469996181108 -5.208391594810271 6.114198828690318 -11.32259042350059 6.114198828690318
S 1145.4366864236413 86.65614163346409 1145.4366864236413 65.36967163728298
s 5.208391594810271 -6.114198828690318 11.32259042350059 -6.114198828690318
S 1168.0818672706423 44.083201641101866 1168.0818672706423 65.36967163728298
z" fill="none" stroke="none"></path>
<circle cx="0" cy="0" r="7.319109200436365" fill="#b5ccf1">
  <animateMotion begin="-0.9239289341986567s" dur="10s" repeatCount="indefinite">
    <mpath xlink:href="#path12"></mpath>
  </animateMotion>
</circle><path id="path13" d="M 1493.6835232186618 68.46585310384657
c 0 36.28357798719082 -8.877896741546689 10.421878783554808 -19.299775525101495 10.421878783554808
S 1455.0839721684588 104.7494310910374 1455.0839721684588 68.46585310384657
s 8.877896741546689 -10.421878783554808 19.299775525101495 -10.421878783554808
S 1493.6835232186618 32.18227511665575 1493.6835232186618 68.46585310384657
z" fill="none" stroke="none"></path>
<circle cx="0" cy="0" r="4.244379689420678" fill="#94a9ce">
  <animateMotion begin="-5.27977394991098s" dur="10s" repeatCount="indefinite">
    <mpath xlink:href="#path13"></mpath>
  </animateMotion>
</circle><path id="path14" d="M 1222.4366768710163 597.1546789116694
c 0 19.471624010151217 -4.764333534398702 5.59291327951152 -10.357246813910221 5.59291327951152
S 1201.7221832431958 616.6263029218206 1201.7221832431958 597.1546789116694
s 4.764333534398702 -5.59291327951152 10.357246813910221 -5.59291327951152
S 1222.4366768710163 577.6830549015182 1222.4366768710163 597.1546789116694
z" fill="none" stroke="none"></path>
<circle cx="0" cy="0" r="4.1217644883328886" fill="#552b2f">
  <animateMotion begin="-7.0564075302930345s" dur="10s" repeatCount="indefinite">
    <mpath xlink:href="#path14"></mpath>
  </animateMotion>
</circle><path id="path15" d="M 788.2849548350118 320.1613364885959
c 0 19.49912595476458 -4.771062733612609 5.6008127742408895 -10.371875507853499 5.6008127742408895
S 767.5412038193049 339.6604624433605 767.5412038193049 320.1613364885959
s 4.771062733612609 -5.6008127742408895 10.371875507853499 -5.6008127742408895
S 788.2849548350118 300.66221053383134 788.2849548350118 320.1613364885959
z" fill="none" stroke="none"></path>
<circle cx="0" cy="0" r="6.267772906646871" fill="#94a9ce">
  <animateMotion begin="-5.153937875752666s" dur="10s" repeatCount="indefinite">
    <mpath xlink:href="#path15"></mpath>
  </animateMotion>
</circle><path id="path16" d="M 450.1781729827495 14.28893869235019
c 0 24.019001688673885 -5.87698977488829 6.899074953129733 -12.776064728018024 6.899074953129733
S 424.6260435267135 38.307940381024075 424.6260435267135 14.28893869235019
s 5.87698977488829 -6.899074953129733 12.776064728018024 -6.899074953129733
S 450.1781729827495 -9.730062996323696 450.1781729827495 14.28893869235019
z" fill="none" stroke="none"></path>
<circle cx="0" cy="0" r="6.859622951219149" fill="#552b2f">
  <animateMotion begin="-2.551835829429292s" dur="10s" repeatCount="indefinite">
    <mpath xlink:href="#path16"></mpath>
  </animateMotion>
</circle><path id="path17" d="M 726.7830097410608 358.9110143983144
c 0 25.73271110847441 -6.2963016542011845 7.3913106375405215 -13.687612291741706 7.3913106375405215
S 699.4077851575773 384.6437255067888 699.4077851575773 358.9110143983144
s 6.2963016542011845 -7.3913106375405215 13.687612291741706 -7.3913106375405215
S 726.7830097410608 333.17830328984 726.7830097410608 358.9110143983144
z" fill="none" stroke="none"></path>
<circle cx="0" cy="0" r="4.5210015790078515" fill="#87434d">
  <animateMotion begin="-9.02511231132957s" dur="10s" repeatCount="indefinite">
    <mpath xlink:href="#path17"></mpath>
  </animateMotion>
</circle><path id="path18" d="M 648.681107064689 262.6054472806814
c 0 33.0586117930976 -8.088809268523878 9.495558706528033 -17.58436797505191 9.495558706528033
S 613.5123711145851 295.664059073779 613.5123711145851 262.6054472806814
s 8.088809268523878 -9.495558706528033 17.58436797505191 -9.495558706528033
S 648.681107064689 229.5468354875838 648.681107064689 262.6054472806814
z" fill="none" stroke="none"></path>
<circle cx="0" cy="0" r="4.879361500782933" fill="#667395">
  <animateMotion begin="-0.4459508821868807s" dur="10s" repeatCount="indefinite">
    <mpath xlink:href="#path18"></mpath>
  </animateMotion>
</circle><path id="path19" d="M 183.4148522698379 85.38269246599403
c 0 21.135016615300362 -5.171333852679875 6.070696261841594 -11.24203011452147 6.070696261841594
S 160.93079204079496 106.51770908129438 160.93079204079496 85.38269246599403
s 5.171333852679875 -6.070696261841594 11.24203011452147 -6.070696261841594
S 183.4148522698379 64.24767585069367 183.4148522698379 85.38269246599403
z" fill="none" stroke="none"></path>
<circle cx="0" cy="0" r="4.787826906294054" fill="#292664">
  <animateMotion begin="-3.8150446177524366s" dur="10s" repeatCount="indefinite">
    <mpath xlink:href="#path19"></mpath>
  </animateMotion>
</circle><path id="path20" d="M 1294.3528045741566 443.96737986643376
c 0 31.72294532309015 -7.761997259905036 9.111909826845043 -16.87390708675008 9.111909826845043
S 1260.6049904006566 475.6903251895239 1260.6049904006566 443.96737986643376
s 7.761997259905036 -9.111909826845043 16.87390708675008 -9.111909826845043
S 1294.3528045741566 412.24443454334363 1294.3528045741566 443.96737986643376
z" fill="none" stroke="none"></path>
<circle cx="0" cy="0" r="5.1666671244957545" fill="#b5ccf1">
  <animateMotion begin="-9.33676678516308s" dur="10s" repeatCount="indefinite">
    <mpath xlink:href="#path20"></mpath>
  </animateMotion>
</circle><path id="path21" d="M 852.9282742014042 486.77495511521056
c 0 22.778283098740467 -5.573409694372666 6.542698336872261 -12.116108031244927 6.542698336872261
S 828.6960581389143 509.55323821395103 828.6960581389143 486.77495511521056
s 5.573409694372666 -6.542698336872261 12.116108031244927 -6.542698336872261
S 852.9282742014042 463.9966720164701 852.9282742014042 486.77495511521056
z" fill="none" stroke="none"></path>
<circle cx="0" cy="0" r="4.982387966364153" fill="#f2bed1">
  <animateMotion begin="-5.604325153217498s" dur="10s" repeatCount="indefinite">
    <mpath xlink:href="#path21"></mpath>
  </animateMotion>
</circle><path id="path22" d="M 1228.135850221783 520.2733149864983
c 0 22.748380107547664 -5.566093005038257 6.534109179827521 -12.100202184865779 6.534109179827521
S 1203.9354458520513 543.021695094046 1203.9354458520513 520.2733149864983
s 5.566093005038257 -6.534109179827521 12.100202184865779 -6.534109179827521
S 1228.135850221783 497.52493487895066 1228.135850221783 520.2733149864983
z" fill="none" stroke="none"></path>
<circle cx="0" cy="0" r="4.066186711596175" fill="#87434d">
  <animateMotion begin="-6.986729804486891s" dur="10s" repeatCount="indefinite">
    <mpath xlink:href="#path22"></mpath>
  </animateMotion>
</circle><path id="path23" d="M 963.660457640386 381.9959426288256
c 0 29.30896495665076 -7.17134248939327 8.418532487548623 -15.589874976941893 8.418532487548623
S 932.4807076865021 411.30490758547637 932.4807076865021 381.9959426288256
s 7.17134248939327 -8.418532487548623 15.589874976941893 -8.418532487548623
S 963.660457640386 352.68697767217486 963.660457640386 381.9959426288256
z" fill="none" stroke="none"></path>
<circle cx="0" cy="0" r="4.778452299515935" fill="#552b2f">
  <animateMotion begin="-5.772997785564124s" dur="10s" repeatCount="indefinite">
    <mpath xlink:href="#path23"></mpath>
  </animateMotion>
</circle><path id="path24" d="M 893.7433572466638 639.9670934114297
c 0 31.80722641041151 -7.782619228079411 9.136118224267136 -16.918737452346548 9.136118224267136
S 859.9058823419706 671.7743198218412 859.9058823419706 639.9670934114297
s 7.782619228079411 -9.136118224267136 16.918737452346548 -9.136118224267136
S 893.7433572466638 608.1598670010181 893.7433572466638 639.9670934114297
z" fill="none" stroke="none"></path>
<circle cx="0" cy="0" r="5.327761280466659" fill="#94a9ce">
  <animateMotion begin="-2.910611911874348s" dur="10s" repeatCount="indefinite">
    <mpath xlink:href="#path24"></mpath>
  </animateMotion>
</circle><path id="path25" d="M 458.396706592783 167.65844137350692
c 0 32.83964961883143 -8.035233417373648 9.432665316047327 -17.467898733420974 9.432665316047327
S 423.4609091259411 200.49809099233835 423.4609091259411 167.65844137350692
s 8.035233417373648 -9.432665316047327 17.467898733420974 -9.432665316047327
S 458.396706592783 134.8187917546755 458.396706592783 167.65844137350692
z" fill="none" stroke="none"></path>
<circle cx="0" cy="0" r="5.2287009479386946" fill="#b5ccf1">
  <animateMotion begin="-2.674187678358688s" dur="10s" repeatCount="indefinite">
    <mpath xlink:href="#path25"></mpath>
  </animateMotion>
</circle><path id="path26" d="M 1299.733174369225 394.859570336332
c 0 31.244916678784403 -7.645032804383416 8.974603726884881 -16.6196365312683 8.974603726884881
S 1266.4939013066885 426.10448701511643 1266.4939013066885 394.859570336332
s 7.645032804383416 -8.974603726884881 16.6196365312683 -8.974603726884881
S 1299.733174369225 363.6146536575476 1299.733174369225 394.859570336332
z" fill="none" stroke="none"></path>
<circle cx="0" cy="0" r="5.291528030553949" fill="#552b2f">
  <animateMotion begin="-8.571863775964374s" dur="10s" repeatCount="indefinite">
    <mpath xlink:href="#path26"></mpath>
  </animateMotion>
</circle><path id="path27" d="M 1531.9781463695106 295.91173131137623
c 0 29.066916189113208 -7.1121177909532305 8.349007841553794 -15.461125632507024 8.349007841553794
S 1501.0558951044966 324.97864750048944 1501.0558951044966 295.91173131137623
s 7.1121177909532305 -8.349007841553794 15.461125632507024 -8.349007841553794
S 1531.9781463695106 266.844815122263 1531.9781463695106 295.91173131137623
z" fill="none" stroke="none"></path>
<circle cx="0" cy="0" r="4.123012192596576" fill="#87434d">
  <animateMotion begin="-4.545843459588832s" dur="10s" repeatCount="indefinite">
    <mpath xlink:href="#path27"></mpath>
  </animateMotion>
</circle><path id="path28" d="M 1467.637808481653 574.9437098128078
c 0 20.572220607641903 -5.0336284465506775 5.909042089429057 -10.942670535979735 5.909042089429057
S 1445.7524674096937 595.5159304204498 1445.7524674096937 574.9437098128078
s 5.0336284465506775 -5.909042089429057 10.942670535979735 -5.909042089429057
S 1467.637808481653 554.3714892051659 1467.637808481653 574.9437098128078
z" fill="none" stroke="none"></path>
<circle cx="0" cy="0" r="7.550503076817884" fill="#94a9ce">
  <animateMotion begin="-0.70058010274477s" dur="10s" repeatCount="indefinite">
    <mpath xlink:href="#path28"></mpath>
  </animateMotion>
</circle><path id="path29" d="M 1101.9387091905367 329.0155532110468
c 0 37.57724329567952 -9.194431870219455 10.793463499822842 -19.987895370042295 10.793463499822842
S 1061.9629184504522 366.5927965067263 1061.9629184504522 329.0155532110468
s 9.194431870219455 -10.793463499822842 19.987895370042295 -10.793463499822842
S 1101.9387091905367 291.43830991536726 1101.9387091905367 329.0155532110468
z" fill="none" stroke="none"></path>
<circle cx="0" cy="0" r="4.113900583301088" fill="#292664">
  <animateMotion begin="-0.9742436973601643s" dur="10s" repeatCount="indefinite">
    <mpath xlink:href="#path29"></mpath>
  </animateMotion>
</circle></g>
</svg>